<?xml version="1.0" encoding="UTF-8"?>
<svg width="95px" height="44px" viewBox="0 0 95 44" version="1.1" xmlns="http://www.w3.org/2000/svg" xmlns:xlink="http://www.w3.org/1999/xlink">
    <title>Group 12</title>
    <defs>
        <polygon id="path-1" points="0.452115764 0.405687864 7.39319951 0.405687864 7.39319951 10.7635468 0.452115764 10.7635468"></polygon>
        <polygon id="path-3" points="0 10.7635468 94.6012808 10.7635468 94.6012808 0.178087774 0 0.178087774"></polygon>
    </defs>
    <g id="Company/careers" stroke="none" stroke-width="1" fill="none" fill-rule="evenodd">
        <g id="careers_v1" transform="translate(-120.000000, -90.000000)">
            <g id="Group-8" transform="translate(120.000000, 90.000000)">
                <g id="Group-4">
                    <path d="M39.8553012,25.1088719 C39.9519169,25.2098163 40,25.3389313 40,25.4952778 C40,25.6300269 39.9519169,25.7474042 39.8553012,25.8488181 C39.7586856,25.9497625 39.6458924,26 39.5169218,26 L24.5149839,26 C24.3644432,26 24.2417638,25.9497625 24.1446988,25.8488181 C24.0480831,25.7474042 24,25.6300269 24,25.4952778 L24,0.538057316 C24,0.179821948 24.1716613,0 24.5149839,0 L39.5169218,0 C39.6458924,0 39.7586856,0.0502374632 39.8553012,0.151181899 C39.9519169,0.252126334 40,0.38124131 40,0.538057316 C40,0.6728064 39.9519169,0.79018365 39.8553012,0.891128086 C39.7586856,0.992072521 39.6458924,1.04277949 39.5169218,1.04277949 L24.9976127,1.04277949 L24.9976127,12.0414974 L33.4647381,12.0414974 C33.8080607,12.0414974 33.9801713,12.2213193 33.9801713,12.5790852 C33.9801713,12.9157231 33.8080607,13.0842769 33.4647381,13.0842769 L24.9976127,13.0842769 L24.9976127,24.95769 L39.5169218,24.95769 C39.6458924,24.95769 39.7586856,25.0079275 39.8553012,25.1088719" id="Fill-1" fill="#313133"></path>
                    <path d="M67.9543072,13.482845 C67.9543072,15.0487116 67.6512416,16.5478645 67.0541642,17.9378927 C66.4547043,19.3322097 65.6265156,20.5692729 64.5929475,21.6138193 C63.5603325,22.6574126 62.3304389,23.4903812 60.9370996,24.0888987 C59.5475724,24.6859866 58.0489225,24.9890575 56.4830836,24.9890575 C54.9162916,24.9890575 53.4171652,24.6859866 52.0281146,24.0888987 C50.6342987,23.4899047 49.4044051,22.6574126 48.3722666,21.6138193 C47.3382221,20.5692729 46.5105099,19.3322097 45.9110499,17.9374162 C45.3139726,16.5488175 45.0113835,15.0496647 45.0113835,13.482845 C45.0113835,11.9169785 45.3139726,10.4178256 45.9110499,9.02827391 C46.5100334,7.63395694 47.337269,6.40356513 48.3703606,5.37093187 C49.4034521,4.3378221 50.6338222,3.51057183 52.0281146,2.91110131 C53.4181183,2.31401341 54.9172447,2.01094246 56.4830836,2.01094246 C58.0479695,2.01094246 59.5466194,2.31401341 60.9370996,2.91110131 C62.3309154,3.51057183 63.5612855,4.33829862 64.5948536,5.37093187 C65.6274686,6.40356513 66.4551808,7.63443346 67.0541642,9.02779739 C67.6512416,10.4187787 67.9543072,11.9179315 67.9543072,13.482845 M66.0367978,3.9623191 C64.815005,2.74193435 63.3702017,1.76648429 61.7409859,1.06313096 C60.1060518,0.357394988 58.3372161,0 56.4830836,0 C54.6275216,0 52.8582094,0.357394988 51.2247048,1.06313096 C49.5950124,1.76648429 48.1544978,2.74241087 46.9441415,3.9642252 C45.7361677,5.1836569 44.7669296,6.62276738 44.0635887,8.24057536 C43.3578652,9.86362513 43,11.6277268 43,13.482845 C43,15.3379633 43.3573887,17.1068302 44.0631122,18.7413166 C44.7664531,20.3715143 45.7356912,21.8163431 46.9441415,23.0352983 C48.1525917,24.2566361 49.5931064,25.2325627 51.2247048,25.936869 C52.8577328,26.6421285 54.6270451,27 56.4830836,27 C58.3381691,27 60.1070048,26.6421285 61.7409859,25.936869 C63.3716313,25.2330392 64.8169111,24.2571126 66.0367978,23.0372044 C67.2576375,21.8163431 68.2335469,20.3710378 68.9368878,18.7413166 C69.6421348,17.1068302 70,15.3379633 70,13.482845 C70,11.6277268 69.6421348,9.86362513 68.9364113,8.24057536 C68.2330704,6.62324391 67.2576375,5.1836569 66.0367978,3.9623191" id="Fill-3" fill="#6C3FCC"></path>
                    <path d="M94.9035416,1.0076529 C94.9035416,0.743986606 94.8079806,0.503206357 94.6276259,0.312012535 C94.2507653,-0.0880164334 93.6329832,-0.056071331 93.2866304,0.311535743 C93.1053784,0.503206357 93.0098174,0.743986606 93.0098174,1.00908328 L93.069487,22.5324536 L79.7483638,0.460771818 C79.4903938,0.068848323 79.1018685,-0.0870628482 78.6491872,0.0473926573 C78.2368838,0.206641377 78,0.556607125 78,1.0076529 L78,26.0101786 C78,26.2738449 78.0955611,26.5146252 78.2763644,26.7067726 C78.6240631,27.0748564 79.2413966,27.105848 79.6178085,26.7062958 C79.7981632,26.5146252 79.8937243,26.2738449 79.8937243,26.0101786 L79.8937243,4.47536528 L93.2296527,26.5198699 C93.3956508,26.8293083 93.682334,27 94.0367624,27 L94.2772353,27 L94.3517101,26.9709157 C94.7635649,26.8111901 95,26.4612244 95,26.0087482 L94.9035416,1.0076529 Z" id="Fill-5" fill="#6C3FCC"></path>
                    <path d="M2.98094277,8.99666819 C1.34090895,9.04707146 0.035830436,7.6771825 0.000642312281,6.00262374 C-0.0341003922,4.36406732 1.34536314,3.00677917 2.97648858,3 C4.76306534,2.99282827 5.99687677,4.33976575 6,5.99767342 C6.00311264,7.71768513 4.62899414,9.07632336 2.98094277,8.99666819" id="Fill-7" fill="#6C3FCC"></path>
                    <path d="M8.26232748,13.4681311 C11.4935182,13.5383507 14.1018233,16.1079222 14.1018233,19.2626575 C14.1018233,22.4613972 11.4221131,25.0637378 8.12805006,25.0637378 L0.449088351,25.0637378 C0.200742493,25.0637378 0,25.2729924 0,25.5318689 C0,25.7902773 0.200742493,26 0.449088351,26 L8.12805006,26 C11.9174576,26 15,22.9777458 15,19.2626575 C15,16.4196975 13.1919703,13.9872884 10.6460884,13 C13.1919703,12.0127116 15,9.58030248 15,6.73781059 C15,3.02272236 11.9174576,0 8.12805006,0 L0.449088351,0 C0.200742493,0 0,0.209722722 0,0.468131077 C0,0.727007562 0.200742493,0.936262153 0.449088351,0.936262153 L8.12805006,0.936262153 C11.4221131,0.936262153 14.1018233,3.53907094 14.1018233,6.73781059 C14.1018233,9.89207778 11.4935182,12.4616493 8.26232748,12.5318689 L0.449088351,12.5318689 C0.200742493,12.5318689 0,12.7415916 0,13 C0,13.2584084 0.200742493,13.4681311 0.449088351,13.4681311 L8.26232748,13.4681311 Z" id="Fill-9" fill="#313133"></path>
                </g>
                <g id="Group-21" transform="translate(0.000000, 33.000000)">
                    <polygon id="Fill-1" fill="#313133" points="0 0.978504254 0 1.55152173 3.08808799 1.55152173 3.08808799 10.7635468 3.76806029 10.7635468 3.76806029 1.55152173 6.8556701 1.55152173 6.8556701 0.978504254"></polygon>
                    <g id="Group-20">
                        <path d="M9.59827586,6.69443686 L14.130665,6.69443686 L14.130665,6.25362069 C14.130665,4.83038625 13.3823645,3.70706337 11.898867,3.70706337 C10.3475123,3.70706337 9.59827586,4.773633 9.59827586,6.35244962 L9.59827586,6.69443686 Z M8.95901478,7.63331169 L8.95901478,6.38180475 C8.95901478,4.44632333 10.0339655,3.16595052 11.898867,3.16595052 C13.7492611,3.16595052 14.7563547,4.5886957 14.7563547,6.28199731 L14.7563547,7.24924877 L9.59827586,7.24924877 L9.59827586,7.67636588 C9.59827586,9.0844335 10.4149015,10.1940573 11.9395813,10.1940573 C13.0688177,10.1940573 13.8035468,9.52573892 14.0894828,8.55848746 L14.6608867,8.55848746 C14.3885222,9.83837103 13.3411823,10.7351702 11.9395813,10.7351702 C10.1022906,10.7351702 8.95901478,9.48268473 8.95901478,7.63331169 L8.95901478,7.63331169 Z" id="Fill-2" fill="#313133"></path>
                        <path d="M18.8043374,7.59055105 L18.8043374,6.31017824 C18.8043374,4.50337013 19.9611847,3.16575481 21.7849039,3.16575481 C23.4729089,3.16575481 24.5197808,4.31843283 24.6971453,5.79842051 L24.0985985,5.79842051 C23.9081305,4.6457425 23.1869729,3.72056673 21.7849039,3.72056673 C20.3014064,3.72056673 19.4581059,4.84486811 19.4581059,6.32436655 L19.4581059,7.57685199 C19.4581059,9.05586117 20.3014064,10.1801626 21.7849039,10.1801626 C23.1869729,10.1801626 23.9081305,9.25498679 24.0985985,8.10328728 L24.6971453,8.10328728 C24.5197808,9.58229646 23.4729089,10.7349745 21.7849039,10.7349745 C19.9611847,10.7349745 18.8043374,9.39784841 18.8043374,7.59055105" id="Fill-4" fill="#313133"></path>
                        <path d="M29.0564754,0.178185625 L29.7097759,0.178185625 L29.7097759,4.73067667 C30.0911798,3.77810278 30.8801946,3.16555911 32.1460813,3.16555911 C33.6838645,3.16555911 34.6778547,4.23359651 34.6778547,6.0262163 L34.6778547,10.564519 L34.0240862,10.564519 L34.0240862,6.11085692 C34.0240862,4.6455468 33.3567463,3.74972615 31.9958596,3.74972615 C30.7440123,3.74972615 29.7097759,4.66022436 29.7097759,6.35254747 L29.7097759,10.564519 L29.0564754,10.564519 L29.0564754,0.178185625 Z" id="Fill-6" fill="#313133"></path>
                        <g id="Group-10" transform="translate(43.990148, 0.000000)">
                            <mask id="mask-2" fill="white">
                                <use xlink:href="#path-1"></use>
                            </mask>
                            <g id="Clip-9"></g>
                            <path d="M0.452115764,7.83253515 L0.452115764,7.60503292 L1.09137685,7.60503292 L1.09137685,7.81834684 C1.09137685,9.2699579 2.26179557,10.1941552 3.92265764,10.1941552 C5.55590887,10.1941552 6.75300246,9.38297515 6.75300246,7.96071921 C6.75300246,7.03652194 6.22184483,6.39560166 5.22925862,6.12553448 L2.41201724,5.35691939 C1.26874138,5.04428728 0.615440887,4.26197313 0.615440887,3.06673018 C0.615440887,1.41599351 1.88179557,0.405687864 3.77337192,0.405687864 C5.67805172,0.405687864 7.01226355,1.55836588 7.01226355,3.2086133 L7.01226355,3.43611554 L6.39920936,3.43611554 L6.39920936,3.22329086 C6.39920936,1.89986386 5.37854433,0.97517734 3.77337192,0.97517734 C2.23512069,0.97517734 1.25563793,1.74330318 1.25563793,3.023676 C1.25563793,3.99092745 1.69085961,4.51785199 2.6029532,4.77373086 L5.44640148,5.55653426 C6.63085961,5.88384393 7.39319951,6.67985714 7.39319951,7.91766502 C7.39319951,9.72496238 5.84090887,10.7636446 3.92265764,10.7636446 C1.93608128,10.7636446 0.452115764,9.59677833 0.452115764,7.83253515" id="Fill-8" fill="#313133" mask="url(#mask-2)"></path>
                        </g>
                        <path d="M58.1937709,10.5642744 C56.9283522,10.5642744 56.3700517,9.88127844 56.3700517,8.68652474 L56.3700517,3.89136464 L55.104165,3.89136464 L55.104165,3.33655273 L56.3700517,3.33655273 L56.3700517,1.24548914 L57.0238202,1.24548914 L57.0238202,3.33655273 L58.9285,3.33655273 L58.9285,3.89136464 L57.0238202,3.89136464 L57.0238202,8.68652474 C57.0238202,9.61072201 57.3490665,10.0094625 58.2892389,10.0094625 L58.9008892,10.0094625 L58.9008892,10.5642744 L58.1937709,10.5642744 Z" id="Fill-11" fill="#313133"></path>
                        <path d="M68.5267759,10.5642744 L67.9137217,10.5642744 L67.9137217,9.09896429 C67.6422931,10.0241401 66.7844852,10.7350234 65.4652488,10.7350234 C63.9269975,10.7350234 62.9606182,9.66796451 62.9606182,7.87534472 L62.9606182,3.33655273 L63.6143867,3.33655273 L63.6143867,7.78972559 C63.6143867,9.25503571 64.2536478,10.1518349 65.6145345,10.1518349 C66.8668498,10.1518349 67.8739433,9.24133665 67.8739433,7.54803504 L67.8739433,3.33655273 L68.5267759,3.33655273 L68.5267759,10.5642744 Z" id="Fill-13" fill="#313133"></path>
                        <path d="M73.5132463,7.54823074 C73.5132463,9.04191749 74.2886897,10.1804072 75.8124335,10.1804072 C77.1597488,10.1804072 78.1804138,9.02772918 78.1804138,7.51985412 L78.1804138,6.38185367 C78.1804138,4.87348936 77.1728522,3.72081135 75.8255369,3.72081135 C74.3153645,3.72081135 73.5132463,4.8588118 73.5132463,6.35249854 L73.5132463,7.54823074 Z M78.8341823,0.1781367 L78.8341823,10.5644701 L78.2215961,10.5644701 L78.2215961,9.15542398 C77.8682709,10.0375456 76.9823842,10.7352191 75.7038621,10.7352191 C73.9339606,10.7352191 72.8594778,9.38292622 72.8594778,7.59030643 L72.8594778,6.31042286 C72.8594778,4.51780307 73.9339606,3.16551019 75.7038621,3.16551019 C76.9426059,3.16551019 77.8135172,3.8348071 78.1804138,4.6738745 L78.1804138,0.1781367 L78.8341823,0.1781367 Z" id="Fill-15" fill="#313133"></path>
                        <mask id="mask-4" fill="white">
                            <use xlink:href="#path-3"></use>
                        </mask>
                        <g id="Clip-18"></g>
                        <path d="M83.5887685,10.5644212 L84.241601,10.5644212 L84.241601,3.33669951 L83.5887685,3.33669951 L83.5887685,10.5644212 Z M83.9158867,0.67614644 C84.241601,0.67614644 84.432069,0.918326243 84.432069,1.20258173 C84.432069,1.45894984 84.241601,1.72950627 83.9158867,1.72950627 C83.5887685,1.72950627 83.3983005,1.45894984 83.3983005,1.20258173 C83.3983005,0.918326243 83.5887685,0.67614644 83.9158867,0.67614644 L83.9158867,0.67614644 Z" id="Fill-17" fill="#313133" mask="url(#mask-4)"></path>
                        <path d="M91.6214163,3.7207135 C90.1112438,3.7207135 89.2670074,4.84501489 89.2670074,6.33870163 L89.2670074,7.5623212 C89.2670074,9.05600795 90.1112438,10.1803093 91.6214163,10.1803093 C93.1320567,10.1803093 93.9748892,9.05600795 93.9748892,7.5623212 L93.9748892,6.33870163 C93.9748892,4.84501489 93.1320567,3.7207135 91.6214163,3.7207135 M88.6408498,7.59069783 L88.6408498,6.31032501 C88.6408498,4.54608184 89.7434113,3.16590159 91.6214163,3.16590159 C93.4998892,3.16590159 94.6010468,4.54608184 94.6010468,6.31032501 L94.6010468,7.59069783 C94.6010468,9.354941 93.4998892,10.7351212 91.6214163,10.7351212 C89.7434113,10.7351212 88.6408498,9.354941 88.6408498,7.59069783" id="Fill-19" fill="#313133" mask="url(#mask-4)"></path>
                    </g>
                </g>
            </g>
        </g>
    </g>
</svg>